<mxfile host="app.diagrams.net" modified="2022-10-13T15:04:11.781Z" agent="5.0 (Windows)" etag="KnpkvifwLtwKtK59G1_Y" version="20.4.0" type="github">
  <diagram name="Page-1" id="c7558073-3199-34d8-9f00-42111426c3f3">
    <mxGraphModel dx="947" dy="802" grid="1" gridSize="10" guides="1" tooltips="1" connect="1" arrows="1" fold="1" page="1" pageScale="1" pageWidth="826" pageHeight="1169" background="none" math="0" shadow="0">
      <root>
        <mxCell id="0" />
        <mxCell id="1" parent="0" />
        <mxCell id="OYGkamUOxupaW8yLrN2Z-97" value="" style="rounded=0;whiteSpace=wrap;html=1;" vertex="1" parent="1">
          <mxGeometry x="20" y="90" width="790" height="650" as="geometry" />
        </mxCell>
        <mxCell id="OYGkamUOxupaW8yLrN2Z-139" style="edgeStyle=orthogonalEdgeStyle;rounded=0;orthogonalLoop=1;jettySize=auto;html=1;exitX=0.5;exitY=1;exitDx=0;exitDy=0;entryX=0.5;entryY=0;entryDx=0;entryDy=0;fontSize=15;" edge="1" parent="1" source="OYGkamUOxupaW8yLrN2Z-123" target="OYGkamUOxupaW8yLrN2Z-128">
          <mxGeometry relative="1" as="geometry" />
        </mxCell>
        <mxCell id="OYGkamUOxupaW8yLrN2Z-123" value="" style="rounded=0;whiteSpace=wrap;html=1;fontSize=15;fillColor=#d5e8d4;strokeColor=#82b366;" vertex="1" parent="1">
          <mxGeometry x="50" y="200" width="730" height="410" as="geometry" />
        </mxCell>
        <mxCell id="OYGkamUOxupaW8yLrN2Z-116" style="edgeStyle=orthogonalEdgeStyle;rounded=0;orthogonalLoop=1;jettySize=auto;html=1;entryX=0.5;entryY=0;entryDx=0;entryDy=0;fontSize=15;" edge="1" parent="1" source="4" target="OYGkamUOxupaW8yLrN2Z-100">
          <mxGeometry relative="1" as="geometry" />
        </mxCell>
        <mxCell id="4" value="Dataset" style="whiteSpace=wrap;align=center;verticalAlign=middle;fontStyle=1;strokeWidth=3;fillColor=#FFFFCC;fontSize=15;" parent="1" vertex="1">
          <mxGeometry x="336" y="120" width="140" height="60" as="geometry" />
        </mxCell>
        <mxCell id="OYGkamUOxupaW8yLrN2Z-98" value="&lt;div align=&quot;left&quot;&gt;&lt;b&gt;&lt;font style=&quot;font-size: 20px;&quot;&gt;Input&lt;/font&gt;&lt;/b&gt;&lt;/div&gt;" style="text;html=1;strokeColor=none;fillColor=none;align=left;verticalAlign=middle;whiteSpace=wrap;rounded=0;" vertex="1" parent="1">
          <mxGeometry x="270" y="135" width="60" height="30" as="geometry" />
        </mxCell>
        <mxCell id="OYGkamUOxupaW8yLrN2Z-100" value="" style="rounded=0;whiteSpace=wrap;html=1;fontSize=15;fillColor=#f5f5f5;strokeColor=#666666;fontColor=#333333;" vertex="1" parent="1">
          <mxGeometry x="121" y="220" width="570" height="90" as="geometry" />
        </mxCell>
        <mxCell id="OYGkamUOxupaW8yLrN2Z-101" value="&lt;div&gt;Recommender System&lt;/div&gt;" style="text;html=1;strokeColor=none;fillColor=none;align=center;verticalAlign=middle;whiteSpace=wrap;rounded=0;" vertex="1" parent="1">
          <mxGeometry x="20" y="90" width="150" height="30" as="geometry" />
        </mxCell>
        <mxCell id="OYGkamUOxupaW8yLrN2Z-113" style="edgeStyle=orthogonalEdgeStyle;rounded=0;orthogonalLoop=1;jettySize=auto;html=1;entryX=0;entryY=0.5;entryDx=0;entryDy=0;fontSize=15;" edge="1" parent="1" source="OYGkamUOxupaW8yLrN2Z-102" target="OYGkamUOxupaW8yLrN2Z-103">
          <mxGeometry relative="1" as="geometry" />
        </mxCell>
        <mxCell id="OYGkamUOxupaW8yLrN2Z-102" value="Data Preprocessing" style="rounded=1;whiteSpace=wrap;html=1;fontSize=15;fillColor=#ffe6cc;strokeColor=#d79b00;" vertex="1" parent="1">
          <mxGeometry x="150" y="256" width="140" height="40" as="geometry" />
        </mxCell>
        <mxCell id="OYGkamUOxupaW8yLrN2Z-114" style="edgeStyle=orthogonalEdgeStyle;rounded=0;orthogonalLoop=1;jettySize=auto;html=1;entryX=0;entryY=0.5;entryDx=0;entryDy=0;fontSize=15;" edge="1" parent="1" source="OYGkamUOxupaW8yLrN2Z-103" target="OYGkamUOxupaW8yLrN2Z-104">
          <mxGeometry relative="1" as="geometry" />
        </mxCell>
        <mxCell id="OYGkamUOxupaW8yLrN2Z-103" value="Feature Selection" style="rounded=1;whiteSpace=wrap;html=1;fontSize=15;fillColor=#ffe6cc;strokeColor=#d79b00;" vertex="1" parent="1">
          <mxGeometry x="336" y="256" width="140" height="40" as="geometry" />
        </mxCell>
        <mxCell id="OYGkamUOxupaW8yLrN2Z-115" style="edgeStyle=orthogonalEdgeStyle;rounded=0;orthogonalLoop=1;jettySize=auto;html=1;exitX=1;exitY=0.5;exitDx=0;exitDy=0;fontSize=15;" edge="1" parent="1" source="OYGkamUOxupaW8yLrN2Z-104" target="OYGkamUOxupaW8yLrN2Z-108">
          <mxGeometry relative="1" as="geometry" />
        </mxCell>
        <mxCell id="OYGkamUOxupaW8yLrN2Z-104" value="Feature Extraction" style="rounded=1;whiteSpace=wrap;html=1;fontSize=15;fillColor=#ffe6cc;strokeColor=#d79b00;" vertex="1" parent="1">
          <mxGeometry x="523" y="256" width="140" height="40" as="geometry" />
        </mxCell>
        <mxCell id="OYGkamUOxupaW8yLrN2Z-105" style="edgeStyle=orthogonalEdgeStyle;rounded=0;orthogonalLoop=1;jettySize=auto;html=1;exitX=0.5;exitY=1;exitDx=0;exitDy=0;fontSize=15;" edge="1" parent="1" source="OYGkamUOxupaW8yLrN2Z-100" target="OYGkamUOxupaW8yLrN2Z-100">
          <mxGeometry relative="1" as="geometry" />
        </mxCell>
        <mxCell id="OYGkamUOxupaW8yLrN2Z-107" value="&lt;div align=&quot;left&quot;&gt;Data Pre-Processing&lt;/div&gt;" style="text;html=1;strokeColor=none;fillColor=none;align=left;verticalAlign=middle;whiteSpace=wrap;rounded=0;" vertex="1" parent="1">
          <mxGeometry x="126" y="220" width="134" height="30" as="geometry" />
        </mxCell>
        <mxCell id="OYGkamUOxupaW8yLrN2Z-108" value="" style="rounded=0;whiteSpace=wrap;html=1;fontSize=15;fillColor=#f5f5f5;fontColor=#333333;strokeColor=#666666;" vertex="1" parent="1">
          <mxGeometry x="121" y="349" width="570" height="240" as="geometry" />
        </mxCell>
        <mxCell id="OYGkamUOxupaW8yLrN2Z-109" value="&lt;div align=&quot;left&quot;&gt;Modelling&lt;/div&gt;" style="text;html=1;strokeColor=none;fillColor=none;align=left;verticalAlign=middle;whiteSpace=wrap;rounded=0;" vertex="1" parent="1">
          <mxGeometry x="131" y="349" width="73" height="30" as="geometry" />
        </mxCell>
        <mxCell id="OYGkamUOxupaW8yLrN2Z-138" style="edgeStyle=orthogonalEdgeStyle;rounded=0;orthogonalLoop=1;jettySize=auto;html=1;entryX=0.5;entryY=0;entryDx=0;entryDy=0;fontSize=15;" edge="1" parent="1" source="OYGkamUOxupaW8yLrN2Z-111" target="OYGkamUOxupaW8yLrN2Z-135">
          <mxGeometry relative="1" as="geometry" />
        </mxCell>
        <mxCell id="OYGkamUOxupaW8yLrN2Z-111" value="" style="rounded=0;whiteSpace=wrap;html=1;fontSize=15;fillColor=#dae8fc;strokeColor=#6c8ebf;" vertex="1" parent="1">
          <mxGeometry x="131" y="380" width="550" height="80" as="geometry" />
        </mxCell>
        <mxCell id="OYGkamUOxupaW8yLrN2Z-120" style="edgeStyle=orthogonalEdgeStyle;rounded=0;orthogonalLoop=1;jettySize=auto;html=1;exitX=1;exitY=0.5;exitDx=0;exitDy=0;entryX=0;entryY=0.5;entryDx=0;entryDy=0;fontSize=15;" edge="1" parent="1" source="OYGkamUOxupaW8yLrN2Z-112" target="OYGkamUOxupaW8yLrN2Z-119">
          <mxGeometry relative="1" as="geometry" />
        </mxCell>
        <mxCell id="OYGkamUOxupaW8yLrN2Z-112" value="KMeans Clustering Model" style="rounded=1;whiteSpace=wrap;html=1;fontSize=15;fillColor=#f8cecc;strokeColor=#b85450;" vertex="1" parent="1">
          <mxGeometry x="190" y="409" width="184" height="40" as="geometry" />
        </mxCell>
        <mxCell id="OYGkamUOxupaW8yLrN2Z-117" value="Personality&amp;nbsp; Prediction" style="text;html=1;strokeColor=none;fillColor=none;align=left;verticalAlign=middle;whiteSpace=wrap;rounded=0;" vertex="1" parent="1">
          <mxGeometry x="144.5" y="379" width="135.5" height="30" as="geometry" />
        </mxCell>
        <mxCell id="OYGkamUOxupaW8yLrN2Z-119" value="Clustering Evaluation" style="rounded=1;whiteSpace=wrap;html=1;fontSize=15;fillColor=#f8cecc;strokeColor=#b85450;" vertex="1" parent="1">
          <mxGeometry x="450" y="409" width="140" height="40" as="geometry" />
        </mxCell>
        <mxCell id="OYGkamUOxupaW8yLrN2Z-128" value="Recommendations" style="whiteSpace=wrap;align=center;verticalAlign=middle;fontStyle=1;strokeWidth=3;fillColor=#FFFFCC;fontSize=15;" vertex="1" parent="1">
          <mxGeometry x="325" y="650" width="180" height="60" as="geometry" />
        </mxCell>
        <mxCell id="OYGkamUOxupaW8yLrN2Z-137" value="" style="group;fillColor=#dae8fc;strokeColor=#6c8ebf;" vertex="1" connectable="0" parent="1">
          <mxGeometry x="131" y="486" width="550" height="90" as="geometry" />
        </mxCell>
        <mxCell id="OYGkamUOxupaW8yLrN2Z-135" value="" style="rounded=0;whiteSpace=wrap;html=1;fontSize=15;fillColor=#dae8fc;strokeColor=#6c8ebf;" vertex="1" parent="OYGkamUOxupaW8yLrN2Z-137">
          <mxGeometry width="550" height="90" as="geometry" />
        </mxCell>
        <mxCell id="OYGkamUOxupaW8yLrN2Z-131" value="Similarity finding" style="text;html=1;strokeColor=none;fillColor=none;align=left;verticalAlign=middle;whiteSpace=wrap;rounded=0;" vertex="1" parent="OYGkamUOxupaW8yLrN2Z-137">
          <mxGeometry x="19" width="109" height="30" as="geometry" />
        </mxCell>
        <mxCell id="OYGkamUOxupaW8yLrN2Z-133" value="KNN Based Recommender algorithm" style="rounded=1;whiteSpace=wrap;html=1;fontSize=15;fillColor=#f8cecc;strokeColor=#b85450;" vertex="1" parent="OYGkamUOxupaW8yLrN2Z-137">
          <mxGeometry x="49" y="30" width="190" height="50" as="geometry" />
        </mxCell>
        <mxCell id="OYGkamUOxupaW8yLrN2Z-134" value="Recommendation analysis " style="rounded=1;whiteSpace=wrap;html=1;fontSize=15;fillColor=#f8cecc;strokeColor=#b85450;" vertex="1" parent="OYGkamUOxupaW8yLrN2Z-137">
          <mxGeometry x="319" y="30" width="140" height="50" as="geometry" />
        </mxCell>
        <mxCell id="OYGkamUOxupaW8yLrN2Z-132" style="edgeStyle=orthogonalEdgeStyle;rounded=0;orthogonalLoop=1;jettySize=auto;html=1;exitX=1;exitY=0.5;exitDx=0;exitDy=0;entryX=0;entryY=0.5;entryDx=0;entryDy=0;fontSize=15;" edge="1" parent="OYGkamUOxupaW8yLrN2Z-137" source="OYGkamUOxupaW8yLrN2Z-133" target="OYGkamUOxupaW8yLrN2Z-134">
          <mxGeometry relative="1" as="geometry" />
        </mxCell>
        <mxCell id="OYGkamUOxupaW8yLrN2Z-136" style="edgeStyle=orthogonalEdgeStyle;rounded=0;orthogonalLoop=1;jettySize=auto;html=1;exitX=1;exitY=0.5;exitDx=0;exitDy=0;entryX=0;entryY=0.5;entryDx=0;entryDy=0;fontSize=15;" edge="1" parent="OYGkamUOxupaW8yLrN2Z-137" source="OYGkamUOxupaW8yLrN2Z-133" target="OYGkamUOxupaW8yLrN2Z-134">
          <mxGeometry relative="1" as="geometry" />
        </mxCell>
        <mxCell id="OYGkamUOxupaW8yLrN2Z-140" value="&lt;font style=&quot;font-size: 20px;&quot;&gt;&lt;b&gt;Output&lt;/b&gt;&lt;/font&gt;" style="text;html=1;strokeColor=none;fillColor=none;align=left;verticalAlign=middle;whiteSpace=wrap;rounded=0;" vertex="1" parent="1">
          <mxGeometry x="240" y="665" width="60" height="30" as="geometry" />
        </mxCell>
      </root>
    </mxGraphModel>
  </diagram>
</mxfile>
